<svg xmlns="http://www.w3.org/2000/svg" version="1.1" xmlns:xlink="http://www.w3.org/1999/xlink" xmlns:svgjs="http://svgjs.com/svgjs" width="1920" height="1080" preserveAspectRatio="none" viewBox="0 0 1920 1080"><g mask="url(&quot;#SvgjsMask4171&quot;)" fill="none"><rect width="1920" height="1080" x="0" y="0" fill="url(#SvgjsLinearGradient4172)"></rect><path d="M1409.7520288429155 231.41344988532782L1543.055595326607-19.2940955256054 1292.348049915674-152.59766200929712 1159.0444834319824 98.10988340163613z" fill="rgba(16, 108, 204, 1)" class="triangle-float3"></path><path d="M775.9216642105064 1083.9748412885965L826.7031019868411 906.8789217083981 535.6685037283762 919.2547248339952z" fill="rgba(16, 108, 204, 1)" class="triangle-float1"></path><path d="M284.18210848518163 708.8131961639074L417.58907056273006 899.338083140479 474.7069954617532 575.406234086359z" fill="rgba(16, 108, 204, 1)" class="triangle-float3"></path><path d="M147.81963412143583 258.5691099019291L159.8079515213435 487.3198328654357 388.55867448485014 475.331515465528 376.57035708494243 246.5807925020214z" fill="rgba(16, 108, 204, 1)" class="triangle-float2"></path><path d="M883.0544600775206 1023.0723607749336L1103.8084404483345 1221.8401374956602 1302.5762171690612 1001.0861571248463 1081.8222367982473 802.3183804041196z" fill="rgba(16, 108, 204, 1)" class="triangle-float2"></path><path d="M336.7159181719727 173.9322153715012L255.55405257505447 21.288946766495258 102.91078397004856 102.45081236341348 184.07264956696676 255.0940809684194z" fill="rgba(16, 108, 204, 1)" class="triangle-float1"></path><path d="M1279.5426048243455 592.0195824384462L1407.5245336785108 379.0218841348151 1194.5268353748797 251.03995528064974 1066.5449065207144 464.03765358428086z" fill="rgba(16, 108, 204, 1)" class="triangle-float2"></path><path d="M1831.8456639658564 884.6910277229647L1640.2637012662967 954.4211595679021 1840.649880383483 1206.9290376947727z" fill="rgba(16, 108, 204, 1)" class="triangle-float3"></path></g><defs><mask id="SvgjsMask4171"><rect width="1920" height="1080" fill="#ffffff"></rect></mask><linearGradient x1="10.94%" y1="-19.44%" x2="89.06%" y2="119.44%" gradientUnits="userSpaceOnUse" id="SvgjsLinearGradient4172"><stop stop-color="rgba(0, 125, 252, 1)" offset="0"></stop><stop stop-color="rgba(9, 45, 82, 1)" offset="0"></stop></linearGradient></defs></svg>