<svg xmlns="http://www.w3.org/2000/svg" version="1.1" xmlns:xlink="http://www.w3.org/1999/xlink" xmlns:svgjs="http://svgjs.com/svgjs" width="1920" height="1080" preserveAspectRatio="none" viewBox="0 0 1920 1080"><g mask="url(&quot;#SvgjsMask5316&quot;)" fill="none"><rect width="1920" height="1080" x="0" y="0" fill="url(#SvgjsLinearGradient5317)"></rect><use xlink:href="#SvgjsG5328" transform="translate(0, 0)" fill="#0f457b"></use><use xlink:href="#SvgjsG5328" transform="translate(0, 572)" fill="rgba(18, 18, 18, 1)"></use><use xlink:href="#SvgjsG5328" transform="translate(572, 0)" fill="rgba(153, 153, 153, 1)"></use><use xlink:href="#SvgjsG5328" transform="translate(572, 572)" fill="#0f457b"></use><use xlink:href="#SvgjsG5328" transform="translate(1144, 0)" fill="#0f457b"></use><use xlink:href="#SvgjsG5328" transform="translate(1144, 572)" fill="rgba(153, 153, 153, 1)"></use><use xlink:href="#SvgjsG5328" transform="translate(1716, 0)" fill="#0f457b"></use><use xlink:href="#SvgjsG5328" transform="translate(1716, 572)" fill="rgba(18, 18, 18, 1)"></use></g><defs><mask id="SvgjsMask5316"><rect width="1920" height="1080" fill="#ffffff"></rect></mask><linearGradient x1="50%" y1="100%" x2="50%" y2="0%" gradientUnits="userSpaceOnUse" id="SvgjsLinearGradient5317"><stop stop-color="#0e2a47" offset="0"></stop><stop stop-color="rgba(0, 35, 80, 1)" offset="1"></stop></linearGradient><g id="SvgjsG5320"><path d="M14.78 10.9c0.29 0.06 0.61-0.12 0.7-0.39 0 0 0.14-0.39 0.25-0.87s0.13-0.89 0.13-0.89c0.02-0.29-0.2-0.58-0.49-0.64l-1.49-0.32c-0.29-0.06-0.55-0.31-0.58-0.55s0.02-0.98 0.27-1.15l1.28-0.83c0.25-0.16 0.34-0.51 0.2-0.76l-0.98-1.51c-0.18-0.23-0.53-0.29-0.78-0.13l-1.28 0.83c-0.25 0.16-0.6 0.17-0.8 0.02s-0.69-0.71-0.62-0.99L10.9 1.22c0.06-0.29-0.12-0.61-0.39-0.7 0 0-0.39-0.14-0.87-0.25s-0.89-0.13-0.89-0.13c-0.29-0.02-0.59 0.2-0.64 0.49l-0.32 1.49c-0.06 0.29-0.31 0.55-0.55 0.58s-0.98-0.02-1.15-0.27l-0.83-1.28C5.1 0.91 4.76 0.82 4.5 0.95l-1.51 0.98c-0.23 0.18-0.29 0.53-0.13 0.78l0.83 1.28c0.16 0.25 0.17 0.6 0.02 0.8s-0.71 0.69-1 0.62L1.22 5.1c-0.29-0.06-0.61 0.12-0.7 0.39 0 0-0.14 0.39-0.25 0.87s-0.13 0.89-0.13 0.89c-0.02 0.29 0.2 0.59 0.49 0.65l1.49 0.31c0.29 0.06 0.55 0.31 0.58 0.55 0.03 0.24-0.02 0.98-0.27 1.15l-1.27 0.83C0.91 10.9 0.82 11.24 0.96 11.51l0.97 1.5c0.18 0.23 0.53 0.29 0.79 0.13l1.27-0.83c0.25-0.16 0.6-0.17 0.8-0.02s0.69 0.71 0.62 1l-0.31 1.49c-0.06 0.29 0.12 0.61 0.39 0.7 0 0 0.39 0.14 0.87 0.25s0.89 0.13 0.89 0.13c0.29 0.02 0.58-0.2 0.65-0.49l0.31-1.49c0.06-0.29 0.31-0.55 0.55-0.58 0.24-0.03 0.98 0.02 1.15 0.27l0.83 1.28c0.16 0.25 0.51 0.34 0.77 0.2l1.5-0.98c0.23-0.18 0.29-0.53 0.13-0.78l-0.83-1.28c-0.16-0.25-0.17-0.61-0.02-0.79 0.15-0.19 0.71-0.69 1-0.63l1.49 0.31zM7.4 10.83c-1.56-0.33-2.56-1.87-2.23-3.43 0.33-1.56 1.87-2.56 3.43-2.23S11.16 7.04 10.83 8.6 8.96 11.16 7.4 10.83z"></path></g><g id="SvgjsG5325"><path d="M2.28 11.07L2.96 7.88c0.59-2.77 3.51-4.61 6.43-4 2.96 0.62 4.86 3.44 4.26 6.27l-0.68 3.19 1.32 0.28L14.97 10.43C15.74 6.86 13.36 3.34 9.68 2.56 6.03 1.78 2.38 4.08 1.63 7.6l-0.67 3.18 1.32 0.29z"></path><path d="M4.13 14.03l-1.75-0.37L3.45 8.66l1.74 0.37c0.41 2.51-1.06 5-1.06 5m6.98-3.74L12.85 10.66 11.79 15.66l-1.75-0.37c-0.41-2.51 1.06-5 1.07-5"></path></g><g id="SvgjsG5318"><path d="M10.55 13.69L2.61 12 4.82 1.64l7.93 1.68-2.2 10.37z m-4.29 0.66a0.46 0.46 0 1 1 0.19-0.89 0.46 0.46 0 0 1-0.19 0.89zM8.34 1.21l1.36 0.29c0.19 0.04 0.12 0.39-0.07 0.35l-1.37-0.29c-0.19-0.04-0.12-0.39 0.08-0.35zM13 1.3L5.42-0.31C5.09-0.38 4.75-0.09 4.66 0.33L1.94 13.13c-0.09 0.42 0.1 0.82 0.43 0.88l7.58 1.62c0.32 0.07 0.66-0.22 0.76-0.64L13.43 2.19c0.09-0.42-0.1-0.82-0.43-0.89z" fill-rule="evenodd"></path></g><g id="SvgjsG5327"><path d="M10.38 0.33C9.62 0.25 6.66 0.92 5.22 7.27c-1.51 6.69 1.06 8.71 1.81 8.86L7.97 11.7c-0.61-0.13-0.6-0.83-0.44-2.26 0.11-0.94 0.32-2.08 0.68-3.18 0.26-0.78 0.57-1.52 1.21-1.39L10.38 0.33z m-1.76 16.15c0.29 0.06 0.55-0.13 0.61-0.4 0 0 0.73-3.45 0.73-3.45 0.06-0.28-0.12-0.54-0.39-0.6l-1.25-0.27L7.37 16.21s1.25 0.26 1.25 0.27z m2.4-11.27c0.29 0.06 0.54-0.13 0.6-0.39 0 0 0.76-3.56 0.75-3.55 0.06-0.28-0.12-0.54-0.39-0.6l-1.25-0.27-0.96 4.55s1.25 0.27 1.25 0.26z"></path></g><g id="SvgjsG5323"><path d="M9.24 2.15C5.15 1.28 1.3 3.08 0.64 6.16c-0.32 1.51 0.18 3.05 1.27 4.33l-0.71 3.36 4.24-0.94c0.45 0.17 0.93 0.31 1.43 0.42 4.09 0.87 7.94-0.93 8.6-4.02 0.66-3.09-2.13-6.29-6.23-7.16zM4.69 8.25a1.07 1.07 0 1 1 0.44-2.09 1.07 1.07 0 0 1-0.44 2.09z m3.11 0.66a1.07 1.07 0 1 1 0.45-2.08 1.07 1.07 0 0 1-0.45 2.08z m3.08 0.66c-0.58-0.12-0.94-0.69-0.83-1.27s0.69-0.94 1.27-0.82 0.94 0.69 0.82 1.26a1.07 1.07 0 0 1-1.26 0.83z"></path></g><g id="SvgjsG5322"><path d="M-0.32 8.68a3.58 3.58 0 1 0 7.01 1.49 3.58 3.58 0 1 0-7.01-1.49"></path><path d="M7.59 9.93a4 4 0 1 0 7.82 1.67 4 4 0 1 0-7.82-1.67"></path><path d="M2.95 6.06a5.05 5.05 0 1 0 9.88 2.1 5.05 5.05 0 1 0-9.88-2.1"></path><path d="M3.69 7.07L12.41 8.92l-1.25 5.86L2.44 12.93z"></path></g><g id="SvgjsG5319"><path d="M14.59 15.02c-0.05 0.23-0.28 0.38-0.51 0.33L-0.49 12.25c-0.23-0.05-0.38-0.27-0.33-0.51L1.42 1.22c0.08-0.36 0.4-0.59 0.76-0.51l5.39 1.14c0.36 0.08 0.57 0.42 0.5 0.78l-0.13 0.62 8.33 1.77c0.23 0.05 0.38 0.28 0.33 0.51l-2.01 9.49z" fill-rule="evenodd"></path></g><g id="SvgjsG5326"><path d="M0.3 5.76L17.49 1.84 6.91 15.94l1.04-7.9z"></path></g><g id="SvgjsG5321"><path d="M2.91-1.26l11.85 10.66-15.16 4.93L2.91-1.26z" fill-rule="evenodd"></path></g><g id="SvgjsG5324"><path d="M0.64 6.27c-0.87 4.07 1.73 8.07 5.8 8.93 4.07 0.86 8.07-1.73 8.93-5.8 0.45-2.12-0.04-4.22-1.19-5.87L11.89 5.13c0.72 1.04 1.03 2.36 0.74 3.69-0.54 2.55-3.06 4.19-5.61 3.64-2.55-0.54-4.19-3.06-3.65-5.61"></path><path d="M12.63 8.82c-0.54 2.55-3.06 4.19-5.61 3.64-2.55-0.54-4.19-3.06-3.65-5.61 0.28-1.33 1.1-2.41 2.19-3.07l-1.45-2.39C2.39 2.43 1.09 4.15 0.64 6.27c-0.87 4.07 1.73 8.07 5.8 8.93 4.07 0.87 8.07-1.73 8.93-5.8"></path><path d="M8.33-0.11L10.94 0.45l-1.71 8.03L6.62 7.92z"></path></g><g id="SvgjsG5328"><use xlink:href="#SvgjsG5318" transform="translate(0, 0) scale(2.2)" fill="rgba(153, 153, 153, 1)"></use><use xlink:href="#SvgjsG5319" transform="translate(0, 57.2) scale(2.2)" fill="#0f457b"></use><use xlink:href="#SvgjsG5318" transform="translate(0, 114.4) scale(2.2)" fill="rgba(18, 18, 18, 1)"></use><use xlink:href="#SvgjsG5320" transform="translate(0, 171.60000000000002) scale(2.2)" fill="rgba(153, 153, 153, 1)"></use><use xlink:href="#SvgjsG5321" transform="translate(0, 228.8) scale(2.2)" fill="rgba(153, 153, 153, 1)"></use><use xlink:href="#SvgjsG5322" transform="translate(0, 286) scale(2.2)" fill="rgba(18, 18, 18, 1)"></use><use xlink:href="#SvgjsG5323" transform="translate(0, 343.20000000000005) scale(2.2)" fill="rgba(18, 18, 18, 1)"></use><use xlink:href="#SvgjsG5320" transform="translate(0, 400.40000000000003) scale(2.2)" fill="rgba(18, 18, 18, 1)"></use><use xlink:href="#SvgjsG5323" transform="translate(0, 457.6) scale(2.2)" fill="rgba(18, 18, 18, 1)"></use><use xlink:href="#SvgjsG5320" transform="translate(0, 514.8000000000001) scale(2.2)" fill="rgba(18, 18, 18, 1)"></use><use xlink:href="#SvgjsG5324" transform="translate(57.2, 0) scale(2.2)" fill="rgba(18, 18, 18, 1)"></use><use xlink:href="#SvgjsG5325" transform="translate(57.2, 57.2) scale(2.2)" fill="#0f457b"></use><use xlink:href="#SvgjsG5322" transform="translate(57.2, 114.4) scale(2.2)" fill="#0f457b"></use><use xlink:href="#SvgjsG5322" transform="translate(57.2, 171.60000000000002) scale(2.2)" fill="#0f457b"></use><use xlink:href="#SvgjsG5326" transform="translate(57.2, 228.8) scale(2.2)" fill="rgba(18, 18, 18, 1)"></use><use xlink:href="#SvgjsG5326" transform="translate(57.2, 286) scale(2.2)" fill="rgba(153, 153, 153, 1)"></use><use xlink:href="#SvgjsG5324" transform="translate(57.2, 343.20000000000005) scale(2.2)" fill="#0f457b"></use><use xlink:href="#SvgjsG5326" transform="translate(57.2, 400.40000000000003) scale(2.2)" fill="rgba(153, 153, 153, 1)"></use><use xlink:href="#SvgjsG5320" transform="translate(57.2, 457.6) scale(2.2)" fill="rgba(18, 18, 18, 1)"></use><use xlink:href="#SvgjsG5325" transform="translate(57.2, 514.8000000000001) scale(2.2)" fill="#0f457b"></use><use xlink:href="#SvgjsG5327" transform="translate(114.4, 0) scale(2.2)" fill="rgba(153, 153, 153, 1)"></use><use xlink:href="#SvgjsG5321" transform="translate(114.4, 57.2) scale(2.2)" fill="#0f457b"></use><use xlink:href="#SvgjsG5324" transform="translate(114.4, 114.4) scale(2.2)" fill="rgba(18, 18, 18, 1)"></use><use xlink:href="#SvgjsG5323" transform="translate(114.4, 171.60000000000002) scale(2.2)" fill="rgba(18, 18, 18, 1)"></use><use xlink:href="#SvgjsG5319" transform="translate(114.4, 228.8) scale(2.2)" fill="rgba(153, 153, 153, 1)"></use><use xlink:href="#SvgjsG5325" transform="translate(114.4, 286) scale(2.2)" fill="#0f457b"></use><use xlink:href="#SvgjsG5319" transform="translate(114.4, 343.20000000000005) scale(2.2)" fill="rgba(153, 153, 153, 1)"></use><use xlink:href="#SvgjsG5318" transform="translate(114.4, 400.40000000000003) scale(2.2)" fill="rgba(153, 153, 153, 1)"></use><use xlink:href="#SvgjsG5325" transform="translate(114.4, 457.6) scale(2.2)" fill="#0f457b"></use><use xlink:href="#SvgjsG5321" transform="translate(114.4, 514.8000000000001) scale(2.2)" fill="rgba(153, 153, 153, 1)"></use><use xlink:href="#SvgjsG5326" transform="translate(171.60000000000002, 0) scale(2.2)" fill="rgba(153, 153, 153, 1)"></use><use xlink:href="#SvgjsG5319" transform="translate(171.60000000000002, 57.2) scale(2.2)" fill="rgba(153, 153, 153, 1)"></use><use xlink:href="#SvgjsG5322" transform="translate(171.60000000000002, 114.4) scale(2.2)" fill="rgba(153, 153, 153, 1)"></use><use xlink:href="#SvgjsG5324" transform="translate(171.60000000000002, 171.60000000000002) scale(2.2)" fill="rgba(18, 18, 18, 1)"></use><use xlink:href="#SvgjsG5325" transform="translate(171.60000000000002, 228.8) scale(2.2)" fill="rgba(153, 153, 153, 1)"></use><use xlink:href="#SvgjsG5326" transform="translate(171.60000000000002, 286) scale(2.2)" fill="#0f457b"></use><use xlink:href="#SvgjsG5323" transform="translate(171.60000000000002, 343.20000000000005) scale(2.2)" fill="#0f457b"></use><use xlink:href="#SvgjsG5324" transform="translate(171.60000000000002, 400.40000000000003) scale(2.2)" fill="rgba(18, 18, 18, 1)"></use><use xlink:href="#SvgjsG5321" transform="translate(171.60000000000002, 457.6) scale(2.2)" fill="rgba(18, 18, 18, 1)"></use><use xlink:href="#SvgjsG5318" transform="translate(171.60000000000002, 514.8000000000001) scale(2.2)" fill="#0f457b"></use><use xlink:href="#SvgjsG5327" transform="translate(228.8, 0) scale(2.2)" fill="rgba(18, 18, 18, 1)"></use><use xlink:href="#SvgjsG5327" transform="translate(228.8, 57.2) scale(2.2)" fill="#0f457b"></use><use xlink:href="#SvgjsG5324" transform="translate(228.8, 114.4) scale(2.2)" fill="#0f457b"></use><use xlink:href="#SvgjsG5326" transform="translate(228.8, 171.60000000000002) scale(2.2)" fill="rgba(153, 153, 153, 1)"></use><use xlink:href="#SvgjsG5324" transform="translate(228.8, 228.8) scale(2.2)" fill="#0f457b"></use><use xlink:href="#SvgjsG5322" transform="translate(228.8, 286) scale(2.2)" fill="#0f457b"></use><use xlink:href="#SvgjsG5325" transform="translate(228.8, 343.20000000000005) scale(2.2)" fill="rgba(18, 18, 18, 1)"></use><use xlink:href="#SvgjsG5322" transform="translate(228.8, 400.40000000000003) scale(2.2)" fill="rgba(18, 18, 18, 1)"></use><use xlink:href="#SvgjsG5327" transform="translate(228.8, 457.6) scale(2.2)" fill="#0f457b"></use><use xlink:href="#SvgjsG5324" transform="translate(228.8, 514.8000000000001) scale(2.2)" fill="rgba(18, 18, 18, 1)"></use><use xlink:href="#SvgjsG5326" transform="translate(286, 0) scale(2.2)" fill="#0f457b"></use><use xlink:href="#SvgjsG5322" transform="translate(286, 57.2) scale(2.2)" fill="#0f457b"></use><use xlink:href="#SvgjsG5319" transform="translate(286, 114.4) scale(2.2)" fill="#0f457b"></use><use xlink:href="#SvgjsG5323" transform="translate(286, 171.60000000000002) scale(2.2)" fill="rgba(18, 18, 18, 1)"></use><use xlink:href="#SvgjsG5318" transform="translate(286, 228.8) scale(2.2)" fill="rgba(153, 153, 153, 1)"></use><use xlink:href="#SvgjsG5324" transform="translate(286, 286) scale(2.2)" fill="rgba(18, 18, 18, 1)"></use><use xlink:href="#SvgjsG5322" transform="translate(286, 343.20000000000005) scale(2.2)" fill="#0f457b"></use><use xlink:href="#SvgjsG5323" transform="translate(286, 400.40000000000003) scale(2.2)" fill="rgba(18, 18, 18, 1)"></use><use xlink:href="#SvgjsG5324" transform="translate(286, 457.6) scale(2.2)" fill="#0f457b"></use><use xlink:href="#SvgjsG5321" transform="translate(286, 514.8000000000001) scale(2.2)" fill="rgba(153, 153, 153, 1)"></use><use xlink:href="#SvgjsG5324" transform="translate(343.20000000000005, 0) scale(2.2)" fill="rgba(18, 18, 18, 1)"></use><use xlink:href="#SvgjsG5323" transform="translate(343.20000000000005, 57.2) scale(2.2)" fill="#0f457b"></use><use xlink:href="#SvgjsG5327" transform="translate(343.20000000000005, 114.4) scale(2.2)" fill="rgba(18, 18, 18, 1)"></use><use xlink:href="#SvgjsG5327" transform="translate(343.20000000000005, 171.60000000000002) scale(2.2)" fill="rgba(153, 153, 153, 1)"></use><use xlink:href="#SvgjsG5320" transform="translate(343.20000000000005, 228.8) scale(2.2)" fill="rgba(153, 153, 153, 1)"></use><use xlink:href="#SvgjsG5320" transform="translate(343.20000000000005, 286) scale(2.2)" fill="rgba(153, 153, 153, 1)"></use><use xlink:href="#SvgjsG5325" transform="translate(343.20000000000005, 343.20000000000005) scale(2.2)" fill="rgba(18, 18, 18, 1)"></use><use xlink:href="#SvgjsG5322" transform="translate(343.20000000000005, 400.40000000000003) scale(2.2)" fill="rgba(18, 18, 18, 1)"></use><use xlink:href="#SvgjsG5325" transform="translate(343.20000000000005, 457.6) scale(2.2)" fill="#0f457b"></use><use xlink:href="#SvgjsG5321" transform="translate(343.20000000000005, 514.8000000000001) scale(2.2)" fill="rgba(18, 18, 18, 1)"></use><use xlink:href="#SvgjsG5326" transform="translate(400.40000000000003, 0) scale(2.2)" fill="#0f457b"></use><use xlink:href="#SvgjsG5318" transform="translate(400.40000000000003, 57.2) scale(2.2)" fill="rgba(153, 153, 153, 1)"></use><use xlink:href="#SvgjsG5327" transform="translate(400.40000000000003, 114.4) scale(2.2)" fill="rgba(18, 18, 18, 1)"></use><use xlink:href="#SvgjsG5327" transform="translate(400.40000000000003, 171.60000000000002) scale(2.2)" fill="rgba(153, 153, 153, 1)"></use><use xlink:href="#SvgjsG5325" transform="translate(400.40000000000003, 228.8) scale(2.2)" fill="rgba(18, 18, 18, 1)"></use><use xlink:href="#SvgjsG5321" transform="translate(400.40000000000003, 286) scale(2.2)" fill="rgba(153, 153, 153, 1)"></use><use xlink:href="#SvgjsG5323" transform="translate(400.40000000000003, 343.20000000000005) scale(2.2)" fill="#0f457b"></use><use xlink:href="#SvgjsG5318" transform="translate(400.40000000000003, 400.40000000000003) scale(2.2)" fill="#0f457b"></use><use xlink:href="#SvgjsG5327" transform="translate(400.40000000000003, 457.6) scale(2.2)" fill="#0f457b"></use><use xlink:href="#SvgjsG5320" transform="translate(400.40000000000003, 514.8000000000001) scale(2.2)" fill="rgba(153, 153, 153, 1)"></use><use xlink:href="#SvgjsG5325" transform="translate(457.6, 0) scale(2.2)" fill="rgba(18, 18, 18, 1)"></use><use xlink:href="#SvgjsG5318" transform="translate(457.6, 57.2) scale(2.2)" fill="rgba(18, 18, 18, 1)"></use><use xlink:href="#SvgjsG5324" transform="translate(457.6, 114.4) scale(2.2)" fill="rgba(18, 18, 18, 1)"></use><use xlink:href="#SvgjsG5322" transform="translate(457.6, 171.60000000000002) scale(2.2)" fill="rgba(18, 18, 18, 1)"></use><use xlink:href="#SvgjsG5319" transform="translate(457.6, 228.8) scale(2.2)" fill="rgba(153, 153, 153, 1)"></use><use xlink:href="#SvgjsG5323" transform="translate(457.6, 286) scale(2.2)" fill="rgba(153, 153, 153, 1)"></use><use xlink:href="#SvgjsG5318" transform="translate(457.6, 343.20000000000005) scale(2.2)" fill="rgba(153, 153, 153, 1)"></use><use xlink:href="#SvgjsG5327" transform="translate(457.6, 400.40000000000003) scale(2.2)" fill="rgba(18, 18, 18, 1)"></use><use xlink:href="#SvgjsG5320" transform="translate(457.6, 457.6) scale(2.2)" fill="rgba(18, 18, 18, 1)"></use><use xlink:href="#SvgjsG5319" transform="translate(457.6, 514.8000000000001) scale(2.2)" fill="rgba(18, 18, 18, 1)"></use><use xlink:href="#SvgjsG5323" transform="translate(514.8000000000001, 0) scale(2.2)" fill="rgba(18, 18, 18, 1)"></use><use xlink:href="#SvgjsG5325" transform="translate(514.8000000000001, 57.2) scale(2.2)" fill="rgba(18, 18, 18, 1)"></use><use xlink:href="#SvgjsG5324" transform="translate(514.8000000000001, 114.4) scale(2.2)" fill="rgba(18, 18, 18, 1)"></use><use xlink:href="#SvgjsG5323" transform="translate(514.8000000000001, 171.60000000000002) scale(2.2)" fill="rgba(153, 153, 153, 1)"></use><use xlink:href="#SvgjsG5321" transform="translate(514.8000000000001, 228.8) scale(2.2)" fill="#0f457b"></use><use xlink:href="#SvgjsG5325" transform="translate(514.8000000000001, 286) scale(2.2)" fill="rgba(18, 18, 18, 1)"></use><use xlink:href="#SvgjsG5320" transform="translate(514.8000000000001, 343.20000000000005) scale(2.2)" fill="rgba(153, 153, 153, 1)"></use><use xlink:href="#SvgjsG5319" transform="translate(514.8000000000001, 400.40000000000003) scale(2.2)" fill="rgba(18, 18, 18, 1)"></use><use xlink:href="#SvgjsG5325" transform="translate(514.8000000000001, 457.6) scale(2.2)" fill="rgba(18, 18, 18, 1)"></use><use xlink:href="#SvgjsG5327" transform="translate(514.8000000000001, 514.8000000000001) scale(2.2)" fill="rgba(153, 153, 153, 1)"></use></g></defs></svg>